<svg xmlns="http://www.w3.org/2000/svg" xmlns:xlink="http://www.w3.org/1999/xlink" width="500" zoomAndPan="magnify" viewBox="0 0 375 149.999998" height="200" preserveAspectRatio="xMidYMid meet" version="1.0"><defs><g/></defs><g fill="#e14444" fill-opacity="1"><g transform="translate(40.023436, 82.180768)"><g><path d="M 18.203125 -31.34375 L 30.859375 0 L 23.1875 0 L 20.859375 -6.265625 L 8.9375 -6.265625 L 6.609375 0 L -1.0625 0 L 11.59375 -31.34375 Z M 18.4375 -12.546875 L 14.9375 -21.65625 L 14.859375 -21.65625 L 11.359375 -12.546875 Z M 18.4375 -12.546875 "/></g></g></g><g fill="#e14444" fill-opacity="1"><g transform="translate(69.809349, 82.180768)"><g><path d="M 18.203125 -31.34375 L 30.859375 0 L 23.1875 0 L 20.859375 -6.265625 L 8.9375 -6.265625 L 6.609375 0 L -1.0625 0 L 11.59375 -31.34375 Z M 18.4375 -12.546875 L 14.9375 -21.65625 L 14.859375 -21.65625 L 11.359375 -12.546875 Z M 18.4375 -12.546875 "/></g></g></g><g fill="#e14444" fill-opacity="1"><g transform="translate(99.595263, 82.180768)"><g><path d="M 28.203125 0 L 26.71875 -18.578125 L 26.53125 -18.578125 L 20.109375 -0.1875 L 15.84375 -0.1875 L 9.421875 -18.578125 L 9.234375 -18.578125 L 7.75 0 L 0.609375 0 L 3.421875 -31.34375 L 11.015625 -31.34375 L 17.96875 -13.265625 L 24.921875 -31.34375 L 32.53125 -31.34375 L 35.34375 0 Z M 28.203125 0 "/></g></g></g><g fill="#e14444" fill-opacity="1"><g transform="translate(135.535923, 82.180768)"><g><path d="M 20.21875 -31.34375 L 20.21875 -25.078125 L 9.421875 -25.078125 L 9.421875 -18.84375 L 19.765625 -18.84375 L 19.765625 -12.578125 L 9.421875 -12.578125 L 9.421875 -6.265625 L 20.21875 -6.265625 L 20.21875 0 L 2.28125 0 L 2.28125 -31.34375 Z M 20.21875 -31.34375 "/></g></g></g><g fill="#e14444" fill-opacity="1"><g transform="translate(157.571418, 82.180768)"><g><path d="M 18.96875 -6.453125 C 20.050781 -6.453125 21.101562 -6.617188 22.125 -6.953125 C 23.15625 -7.285156 23.910156 -7.601562 24.390625 -7.90625 L 25.125 -8.390625 L 28.15625 -2.3125 C 28.050781 -2.238281 27.910156 -2.140625 27.734375 -2.015625 C 27.554688 -1.890625 27.144531 -1.65625 26.5 -1.3125 C 25.851562 -0.96875 25.160156 -0.664062 24.421875 -0.40625 C 23.691406 -0.15625 22.734375 0.0664062 21.546875 0.265625 C 20.359375 0.460938 19.128906 0.5625 17.859375 0.5625 C 14.941406 0.5625 12.175781 -0.148438 9.5625 -1.578125 C 6.957031 -3.003906 4.859375 -4.972656 3.265625 -7.484375 C 1.671875 -9.992188 0.875 -12.707031 0.875 -15.625 C 0.875 -17.820312 1.34375 -19.929688 2.28125 -21.953125 C 3.21875 -23.984375 4.460938 -25.722656 6.015625 -27.171875 C 7.578125 -28.617188 9.394531 -29.769531 11.46875 -30.625 C 13.550781 -31.488281 15.679688 -31.921875 17.859375 -31.921875 C 19.890625 -31.921875 21.757812 -31.675781 23.46875 -31.1875 C 25.175781 -30.707031 26.382812 -30.226562 27.09375 -29.75 L 28.15625 -29.03125 L 25.125 -22.953125 C 24.945312 -23.109375 24.675781 -23.289062 24.3125 -23.5 C 23.957031 -23.71875 23.25 -24.003906 22.1875 -24.359375 C 21.125 -24.710938 20.050781 -24.890625 18.96875 -24.890625 C 17.238281 -24.890625 15.691406 -24.609375 14.328125 -24.046875 C 12.960938 -23.492188 11.878906 -22.757812 11.078125 -21.84375 C 10.273438 -20.9375 9.664062 -19.957031 9.25 -18.90625 C 8.832031 -17.851562 8.625 -16.78125 8.625 -15.6875 C 8.625 -13.3125 9.515625 -11.175781 11.296875 -9.28125 C 13.085938 -7.394531 15.644531 -6.453125 18.96875 -6.453125 Z M 18.96875 -6.453125 "/></g></g></g><g fill="#e14444" fill-opacity="1"><g transform="translate(186.179574, 82.180768)"><g/></g></g><g fill="#e14444" fill-opacity="1"><g transform="translate(196.551457, 82.180768)"><g><path d="M 2.28125 -31.34375 L 12.015625 -31.34375 C 14.953125 -31.34375 17.289062 -30.71875 19.03125 -29.46875 C 20.78125 -28.21875 21.65625 -26.1875 21.65625 -23.375 C 21.65625 -20.226562 20.351562 -17.984375 17.75 -16.640625 C 22.207031 -15.859375 24.4375 -13.222656 24.4375 -8.734375 C 24.4375 -6.097656 23.523438 -3.984375 21.703125 -2.390625 C 19.878906 -0.796875 17.367188 0 14.171875 0 L 2.28125 0 Z M 9.421875 -19.078125 L 10 -19.078125 C 11.59375 -19.078125 12.78125 -19.351562 13.5625 -19.90625 C 14.351562 -20.46875 14.75 -21.378906 14.75 -22.640625 C 14.75 -24.773438 13.164062 -25.84375 10 -25.84375 L 9.421875 -25.84375 Z M 9.421875 -5.515625 L 11.671875 -5.515625 C 15.160156 -5.515625 16.90625 -6.675781 16.90625 -9 C 16.90625 -10.394531 16.46875 -11.394531 15.59375 -12 C 14.71875 -12.613281 13.410156 -12.921875 11.671875 -12.921875 L 9.421875 -12.921875 Z M 9.421875 -5.515625 "/></g></g></g><g fill="#e14444" fill-opacity="1"><g transform="translate(221.854285, 82.180768)"><g><path d="M 9.421875 -31.34375 L 9.421875 -6.265625 L 20.21875 -6.265625 L 20.21875 0 L 2.28125 0 L 2.28125 -31.34375 Z M 9.421875 -31.34375 "/></g></g></g><g fill="#e14444" fill-opacity="1"><g transform="translate(243.319887, 82.180768)"><g><path d="M 0.875 -15.6875 C 0.875 -20.226562 2.414062 -24.066406 5.5 -27.203125 C 8.59375 -30.347656 12.320312 -31.921875 16.6875 -31.921875 C 21.0625 -31.921875 24.78125 -30.351562 27.84375 -27.21875 C 30.914062 -24.09375 32.453125 -20.25 32.453125 -15.6875 C 32.453125 -11.101562 30.941406 -7.25 27.921875 -4.125 C 24.910156 -1 21.164062 0.5625 16.6875 0.5625 C 12.09375 0.5625 8.304688 -0.984375 5.328125 -4.078125 C 2.359375 -7.179688 0.875 -11.050781 0.875 -15.6875 Z M 8.59375 -15.6875 C 8.59375 -14.039062 8.84375 -12.539062 9.34375 -11.1875 C 9.851562 -9.832031 10.738281 -8.6875 12 -7.75 C 13.269531 -6.8125 14.832031 -6.34375 16.6875 -6.34375 C 19.34375 -6.34375 21.347656 -7.253906 22.703125 -9.078125 C 24.054688 -10.898438 24.734375 -13.101562 24.734375 -15.6875 C 24.734375 -18.25 24.039062 -20.445312 22.65625 -22.28125 C 21.28125 -24.125 19.289062 -25.046875 16.6875 -25.046875 C 14.101562 -25.046875 12.109375 -24.125 10.703125 -22.28125 C 9.296875 -20.445312 8.59375 -18.25 8.59375 -15.6875 Z M 8.59375 -15.6875 "/></g></g></g><g fill="#e14444" fill-opacity="1"><g transform="translate(276.639084, 82.180768)"><g><path d="M 30.625 -17.5625 L 30.625 -10.75 C 29.8125 -7.03125 28.035156 -4.210938 25.296875 -2.296875 C 22.566406 -0.390625 19.519531 0.5625 16.15625 0.5625 C 11.914062 0.5625 8.304688 -1.019531 5.328125 -4.1875 C 2.359375 -7.351562 0.875 -11.175781 0.875 -15.65625 C 0.875 -20.21875 2.328125 -24.066406 5.234375 -27.203125 C 8.148438 -30.347656 11.789062 -31.921875 16.15625 -31.921875 C 21.238281 -31.921875 25.265625 -30.132812 28.234375 -26.5625 L 23.5625 -21.4375 C 21.882812 -24.113281 19.550781 -25.453125 16.5625 -25.453125 C 14.363281 -25.453125 12.484375 -24.492188 10.921875 -22.578125 C 9.367188 -20.671875 8.59375 -18.363281 8.59375 -15.65625 C 8.59375 -13 9.367188 -10.722656 10.921875 -8.828125 C 12.484375 -6.941406 14.363281 -6 16.5625 -6 C 18.382812 -6 19.972656 -6.550781 21.328125 -7.65625 C 22.691406 -8.757812 23.375 -10.222656 23.375 -12.046875 L 16.15625 -12.046875 L 16.15625 -17.5625 Z M 30.625 -17.5625 "/></g></g></g><g fill="#050a30" fill-opacity="1"><g transform="translate(308.124983, 82.180768)"><g><path d="M 6.609375 -8.125 C 7.828125 -8.125 8.859375 -7.703125 9.703125 -6.859375 C 10.554688 -6.015625 10.984375 -4.984375 10.984375 -3.765625 C 10.984375 -2.566406 10.554688 -1.546875 9.703125 -0.703125 C 8.859375 0.140625 7.828125 0.5625 6.609375 0.5625 C 5.421875 0.5625 4.398438 0.140625 3.546875 -0.703125 C 2.703125 -1.546875 2.28125 -2.566406 2.28125 -3.765625 C 2.28125 -4.984375 2.703125 -6.015625 3.546875 -6.859375 C 4.398438 -7.703125 5.421875 -8.125 6.609375 -8.125 Z M 6.609375 -8.125 "/></g></g></g></svg>